<?xml version="1.0" encoding="iso-8859-1"?>
<!-- Generator: Adobe Illustrator 19.0.0, SVG Export Plug-In . SVG Version: 6.00 Build 0)  -->
<svg version="1.1" id="Capa_1" xmlns="http://www.w3.org/2000/svg" xmlns:xlink="http://www.w3.org/1999/xlink" x="0px" y="0px"
	 viewBox="0 0 480 480" style="enable-background:new 0 0 480 480;" xml:space="preserve">
<g>
	
		<linearGradient id="SVGID_1_" gradientUnits="userSpaceOnUse" x1="-26.875" y1="624.0993" x2="-26.875" y2="565.4053" gradientTransform="matrix(8 0 0 -8 455.0001 5013.0024)">
		<stop  offset="0" style="stop-color:#FC5C7D"/>
		<stop  offset="0.129" style="stop-color:#F35E85"/>
		<stop  offset="0.343" style="stop-color:#D9659B"/>
		<stop  offset="0.616" style="stop-color:#B070BF"/>
		<stop  offset="0.934" style="stop-color:#777FF0"/>
		<stop  offset="1" style="stop-color:#6A82FB"/>
	</linearGradient>
	<path style="fill:url(#SVGID_1_);" d="M472,400h-8V112c0-17.673-14.327-32-32-32h-72V24c0-4.418-3.581-8-7.999-8.001
		c-0.494,0-0.987,0.046-1.473,0.137l-48,9l-8,1.504L223.256,40H176c-8.837,0-16,7.163-16,16c-15.886,0.021-30.254,9.44-36.608,24H48
		c-17.673,0-32,14.327-32,32v288H8c-4.418,0-8,3.582-8,8v24c0,17.673,14.327,32,32,32h416c17.673,0,32-14.327,32-32v-24
		C480,403.582,476.418,400,472,400z M344,33.64V158.4l-112-21.04V54.64L344,33.64z M216,200h-24v-48h24V200z M192,216h24v12
		c0,6.627-5.373,12-12,12s-12-5.373-12-12V216z M232,153.6l16,3V168h-16V153.6z M176,56h40v80h-40V56z M160,72v48
		c-13.255,0-24-10.745-24-24S146.745,72,160,72z M32,112c0-8.837,7.163-16,16-16h72c0.026,22.08,17.92,39.974,40,40
		c0,8.837,7.163,16,16,16v76c0,15.464,12.536,28,28,28s28-12.536,28-28v-44h24c4.418,0,8-3.582,8-8v-16.36l86.528,16.224
		c0.486,0.089,0.978,0.135,1.472,0.136c4.418,0,8-3.582,8-8V96h72c8.837,0,16,7.163,16,16v288H312
		c-2.12-0.002-4.155,0.839-5.656,2.336L292.688,416H187.312l-13.656-13.664c-1.501-1.497-3.536-2.338-5.656-2.336H32L32,112z
		 M464,432c0,8.837-7.163,16-16,16H32c-8.837,0-16-7.163-16-16v-16h148.688l13.656,13.656c1.5,1.5,3.534,2.344,5.656,2.344h112
		c2.122,0,4.156-0.844,5.656-2.344L315.312,416H464V432z"/>
	
		<linearGradient id="SVGID_2_" gradientUnits="userSpaceOnUse" x1="-26.875" y1="624.0993" x2="-26.875" y2="565.4053" gradientTransform="matrix(8 0 0 -8 455.0001 5013.0024)">
		<stop  offset="0" style="stop-color:#FC5C7D"/>
		<stop  offset="0.129" style="stop-color:#F35E85"/>
		<stop  offset="0.343" style="stop-color:#D9659B"/>
		<stop  offset="0.616" style="stop-color:#B070BF"/>
		<stop  offset="0.934" style="stop-color:#777FF0"/>
		<stop  offset="1" style="stop-color:#6A82FB"/>
	</linearGradient>
	<path style="fill:url(#SVGID_2_);" d="M424,360V128c0-4.418-3.582-8-8-8h-32v16h24v216H72V136h40v-16H64c-4.418,0-8,3.582-8,8v232
		c0,4.418,3.582,8,8,8h352C420.418,368,424,364.419,424,360z"/>
	
		<linearGradient id="SVGID_3_" gradientUnits="userSpaceOnUse" x1="-26.875" y1="624.0993" x2="-26.875" y2="565.4053" gradientTransform="matrix(8 0 0 -8 455.0001 5013.0024)">
		<stop  offset="0" style="stop-color:#FC5C7D"/>
		<stop  offset="0.129" style="stop-color:#F35E85"/>
		<stop  offset="0.343" style="stop-color:#D9659B"/>
		<stop  offset="0.616" style="stop-color:#B070BF"/>
		<stop  offset="0.934" style="stop-color:#777FF0"/>
		<stop  offset="1" style="stop-color:#6A82FB"/>
	</linearGradient>
	<path style="fill:url(#SVGID_3_);" d="M232,384h16v16h-16V384z"/>
</g>
<g>
	
		<linearGradient id="SVGID_4_" gradientUnits="userSpaceOnUse" x1="-41.875" y1="624.0993" x2="-41.875" y2="565.4053" gradientTransform="matrix(8 0 0 -8 455.0001 5013.0024)">
		<stop  offset="0" style="stop-color:#FC5C7D"/>
		<stop  offset="0.129" style="stop-color:#F35E85"/>
		<stop  offset="0.343" style="stop-color:#D9659B"/>
		<stop  offset="0.616" style="stop-color:#B070BF"/>
		<stop  offset="0.934" style="stop-color:#777FF0"/>
		<stop  offset="1" style="stop-color:#6A82FB"/>
	</linearGradient>
	<path style="fill:url(#SVGID_4_);" d="M112,280h16v16h-16V280z"/>
	
		<linearGradient id="SVGID_5_" gradientUnits="userSpaceOnUse" x1="-23.875" y1="624.0993" x2="-23.875" y2="565.4053" gradientTransform="matrix(8 0 0 -8 455.0001 5013.0024)">
		<stop  offset="0" style="stop-color:#FC5C7D"/>
		<stop  offset="0.129" style="stop-color:#F35E85"/>
		<stop  offset="0.343" style="stop-color:#D9659B"/>
		<stop  offset="0.616" style="stop-color:#B070BF"/>
		<stop  offset="0.934" style="stop-color:#777FF0"/>
		<stop  offset="1" style="stop-color:#6A82FB"/>
	</linearGradient>
	<path style="fill:url(#SVGID_5_);" d="M144,280h240v16H144V280z"/>
	
		<linearGradient id="SVGID_6_" gradientUnits="userSpaceOnUse" x1="-28.375" y1="624.0993" x2="-28.375" y2="565.4053" gradientTransform="matrix(8 0 0 -8 455.0001 5013.0024)">
		<stop  offset="0" style="stop-color:#FC5C7D"/>
		<stop  offset="0.129" style="stop-color:#F35E85"/>
		<stop  offset="0.343" style="stop-color:#D9659B"/>
		<stop  offset="0.616" style="stop-color:#B070BF"/>
		<stop  offset="0.934" style="stop-color:#777FF0"/>
		<stop  offset="1" style="stop-color:#6A82FB"/>
	</linearGradient>
	<path style="fill:url(#SVGID_6_);" d="M96,312h264v16H96V312z"/>
</g>
<g>
</g>
<g>
</g>
<g>
</g>
<g>
</g>
<g>
</g>
<g>
</g>
<g>
</g>
<g>
</g>
<g>
</g>
<g>
</g>
<g>
</g>
<g>
</g>
<g>
</g>
<g>
</g>
<g>
</g>
</svg>
