<svg height="459pt" viewBox="0 -16 459.312 459" width="459pt" xmlns="http://www.w3.org/2000/svg" xmlns:xlink="http://www.w3.org/1999/xlink"><linearGradient id="lg1"><stop offset="0" stop-color="#fc5c7d"/><stop offset=".129" stop-color="#f35e85"/><stop offset=".343" stop-color="#d9659b"/><stop offset=".616" stop-color="#b070bf"/><stop offset=".934" stop-color="#777ff0"/><stop offset="1" stop-color="#6a82fb"/></linearGradient><linearGradient id="linear0" gradientUnits="userSpaceOnUse" x1="229.656" x2="229.656" xlink:href="#lg1" y1="-72.172" y2="439.18"/><linearGradient id="linear1" gradientUnits="userSpaceOnUse" x1="345.657616" x2="345.657616" xlink:href="#lg1" y1="-72.166205" y2="439.185795"/><linearGradient id="linear2" gradientUnits="userSpaceOnUse" x1="275.140647" x2="275.140647" xlink:href="#lg1" y1="-72.173524" y2="439.178476"/><path d="m11.3125 128.15625-11.3125 11.3125 32 32c3.125 3.121094 8.1875 3.121094 11.3125 0l10.34375-10.34375 24 24v22.054688c-.023438 13.847656 4.585938 27.304687 13.085938 38.230468l-10.742188 10.746094c-8.761719 8.757812-11.382812 21.929688-6.644531 33.375 4.742187 11.441406 15.914062 18.902344 28.300781 18.898438.511719 0 1.023438-.121094 1.535156-.152344-.484375 8.371094 2.515625 16.570312 8.28125 22.660156 5.769532 6.085938 13.796875 9.523438 22.183594 9.492188.511719 0 1.023438-.121094 1.535156-.152344-.484375 8.371094 2.515625 16.570312 8.28125 22.660156 5.769532 6.085938 13.796875 9.523438 22.183594 9.492188.511719 0 1.023438-.121094 1.535156-.152344-.664062 12.632812 6.527344 24.367187 18.085938 29.511718 11.558594 5.144532 25.089844 2.636719 34.035156-6.3125l11.199219-11.199218c9.667969 5.605468 21.632812 5.453125 31.15625-.394532 9.523437-5.847656 15.070312-16.449218 14.445312-27.605468.511719 0 1.023438.152344 1.535157.152344 8.386718.03125 16.414062-3.40625 22.179687-9.492188 5.769531-6.089844 8.765625-14.289062 8.285156-22.660156.511719 0 1.023438.152344 1.535157.152344 8.386718.03125 16.414062-3.40625 22.179687-9.492188 5.769531-6.089844 8.765625-14.289062 8.285156-22.660156.511719 0 1.023438.152344 1.535157.152344 10.910156.019531 21.003906-5.789063 26.464843-15.234376 5.464844-9.445312 5.46875-21.089843.007813-30.535156l3.199218-3.199218c11.699219-11.777344 18.289063-27.6875 18.335938-44.289063v-22.046875l16-16 10.34375 10.34375c3.125 3.121094 8.1875 3.121094 11.3125 0l32-32-11.3125-11.3125-26.34375 26.34375-100.6875-100.6875 42.34375-42.34375-11.3125-11.3125-48 48c-3.125 3.125-3.125 8.1875 0 11.3125l6.34375 6.34375-28 28h-39.40625c-7.535156.019531-14.914062 2.164062-21.28125 6.191406-6.351562-4.042968-13.726562-6.191406-21.257812-6.191406h-39.429688l-20-20 14.34375-14.34375c3.121094-3.125 3.121094-8.1875 0-11.3125l-48-48-11.3125 11.3125 42.34375 42.34375-100.6875 100.6875zm144 224c-5.703125-5.71875-5.703125-14.972656 0-20.6875l13.09375-13.097656c1.375 4.941406 3.988281 9.449218 7.59375 13.097656l10.34375 10.34375-10.34375 10.34375c-5.71875 5.703125-14.972656 5.703125-20.6875 0zm32 32c-5.703125-5.71875-5.703125-14.972656 0-20.6875l10.34375-10.34375 20.6875 20.6875-10.34375 10.34375c-5.71875 5.703125-14.972656 5.703125-20.6875 0zm68.6875-16c-5.71875 5.703125-14.972656 5.703125-20.6875 0l-48-48c-5.507812-5.746094-5.410156-14.839844.21875-20.46875s14.722656-5.726562 20.46875-.21875l48 48c5.703125 5.714844 5.703125 14.96875 0 20.6875zm32-32c-5.71875 5.703125-14.972656 5.703125-20.6875 0l-48-48c-5.507812-5.746094-5.410156-14.839844.21875-20.46875s14.722656-5.726562 20.46875-.21875l48 48c5.703125 5.714844 5.703125 14.96875 0 20.6875zm32-32c-5.71875 5.703125-14.972656 5.703125-20.6875 0l-48-48c-5.507812-5.746094-5.410156-14.839844.21875-20.46875s14.722656-5.726562 20.46875-.21875l48 48c5.703125 5.714844 5.703125 14.96875 0 20.6875zm32-32c-5.71875 5.703125-14.972656 5.703125-20.6875 0l-48-48c-5.507812-5.746094-5.410156-14.839844.21875-20.46875s14.722656-5.726562 20.46875-.21875l48 48c5.703125 5.714844 5.703125 14.96875 0 20.6875zm-66.34375-162.34375c2.121094 0 4.15625-.84375 5.65625-2.34375l30.34375-30.34375 72.6875 72.6875-18.34375 18.34375c-1.5 1.5-2.34375 3.535156-2.34375 5.65625v25.359375c-.035156 12.363281-4.941406 24.214844-13.65625 32.984375l-2.34375 2.34375-42.34375-42.34375c-8.929688-8.996094-22.488281-11.535156-34.0625-6.382812-11.578125 5.15625-18.765625 16.929687-18.058594 29.582031-8.632812-.511719-17.074218 2.695312-23.1875 8.8125-6.117187 6.113281-9.324218 14.554687-8.8125 23.1875-8.632812-.511719-17.074218 2.695312-23.1875 8.8125-6.117187 6.113281-9.324218 14.554687-8.8125 23.1875-8.632812-.5-17.070312 2.699219-23.199218 8.800781l-32 32c-5.746094 5.503906-14.839844 5.40625-20.46875-.21875-5.628907-5.628906-5.726563-14.722656-.21875-20.46875l48-48-11.3125-11.3125-48 48c-5.746094 5.503906-14.839844 5.40625-20.46875-.21875-5.628907-5.628906-5.726563-14.722656-.21875-20.46875l59.199218-59.199219c11.925782 6.972657 27.0625 5 36.800782-4.800781l41.367187-41.367188c13.4375-13.472656 15.542969-34.535156 5.039063-50.402343 2.921874-1.234375 6.054687-1.875 9.226562-1.886719zm-133.65625-2.34375c1.5 1.5 3.535156 2.34375 5.65625 2.34375h42.742188c9.710937 0 18.464843 5.847656 22.179687 14.816406 3.714844 8.972656 1.65625 19.296875-5.210937 26.160156l-41.367188 41.367188c-5.746094 5.503906-14.839844 5.40625-20.46875-.21875-5.628906-5.628906-5.726562-14.722656-.21875-20.46875l32-32-11.3125-11.3125-32 32c-9.710938 9.78125-11.679688 24.855469-4.800781 36.800781l-37.015625 37.023438c-5.550782-7.832031-8.53125-17.199219-8.527344-26.800781v-25.367188c0-2.121094-.84375-4.15625-2.34375-5.65625l-26.34375-26.34375 64.6875-64.6875zm0 0" fill="url(#linear0)"/><path d="m288.003906 392.15625 104-104.003906 11.3125 11.316406-104 104zm0 0" fill="url(#linear1)"/><path d="m264.003906 416.15625 10.976563-10.980469 11.316406 11.3125-10.980469 10.980469zm0 0" fill="url(#linear2)"/></svg>