<?xml version="1.0" encoding="iso-8859-1"?>
<!-- Generator: Adobe Illustrator 19.0.0, SVG Export Plug-In . SVG Version: 6.00 Build 0)  -->
<svg version="1.1" id="Capa_1" xmlns="http://www.w3.org/2000/svg" xmlns:xlink="http://www.w3.org/1999/xlink" x="0px" y="0px"
	 viewBox="0 0 512 512" style="enable-background:new 0 0 512 512;" xml:space="preserve">
<path style="fill:#EDEDED;" d="M71.8,99.833l59.125-90.164c0.888-1.354,2.387-2.169,3.993-2.169h296.497
	c5.294,0,9.585,4.346,9.585,9.707v477.586c0,5.361-4.292,9.707-9.585,9.707H80.586c-5.294,0-9.585-4.346-9.585-9.707V102.518
	C71,101.562,71.278,100.628,71.8,99.833z"/>
<path style="fill:#D8D8D8;" d="M441,17.207v477.586c0,5.361-4.292,9.707-9.585,9.707H409.37c5.294,0,9.585-4.346,9.585-9.707V17.207
	c0-5.361-4.292-9.707-9.585-9.707h22.045C436.708,7.5,441,11.846,441,17.207z"/>
<path style="fill:#C1C1C1;" d="M71.8,99.833l0.468-0.714l58.657-89.45c0.376-0.573,0.865-1.042,1.422-1.401v83.078
	c0,5.361-4.292,9.707-9.585,9.707H71.228C71.362,100.624,71.552,100.212,71.8,99.833z"/>
<path style="fill:#7CC3AC;" d="M236.829,376.367v87.363h-38.342h-38.342h-38.342v-58.242c0-5.361,4.292-9.707,9.585-9.707h19.171
	c5.294,0,9.585,4.346,9.585,9.707v-77.656c0-5.361,4.292-9.707,9.585-9.707H188.9c5.294,0,9.585,4.346,9.585,9.707v48.535
	c0-5.361,4.292-9.707,9.585-9.707h19.171C232.537,366.66,236.829,371.006,236.829,376.367z"/>
<path style="fill:#61AE9F;" d="M236.829,376.367v87.363H219.05v-87.363c0-5.361-4.292-9.707-9.586-9.707h17.779
	C232.537,366.66,236.829,371.006,236.829,376.367z"/>
<path style="fill:#4A7273;" d="M198.487,327.832V463.73h-38.342h-38.342v-58.242c0-5.361,4.292-9.707,9.585-9.707h19.171
	c5.294,0,9.585,4.346,9.585,9.707v-77.656c0-5.361,4.292-9.707,9.585-9.707H188.9C194.196,318.125,198.487,322.471,198.487,327.832z
	"/>
<path style="fill:#FF904E;" d="M160.145,405.781v57.949h-38.342v-57.949c0-5.523,4.477-10,10-10h18.342
	C155.668,395.781,160.145,400.258,160.145,405.781z"/>
<path style="fill:#D8D8D8;" d="M397.386,454.023v9.707c0,4.021-3.218,7.28-7.189,7.28s-7.189-3.26-7.189-7.28v-9.707
	c0-4.021,3.218-7.28,7.189-7.28S397.386,450.003,397.386,454.023z"/>
<path style="fill:#FFB05F;" d="M351.855,182.132c0,53.61-42.916,97.07-95.855,97.07s-95.855-43.46-95.855-97.07
	s42.916-97.07,95.855-97.07S351.855,128.522,351.855,182.132z"/>
<path style="fill:#61AE9F;" d="M188.22,250.771l135.56-137.278c17.346,17.566,28.075,41.834,28.075,68.639
	c0,53.61-42.916,97.07-95.855,97.07C229.531,279.203,205.567,268.338,188.22,250.771z"/>
<path style="fill:#4C9089;" d="M351.855,182.132c0,53.61-42.916,97.07-95.855,97.07c-3.573,0-7.099-0.205-10.571-0.59
	c47.964-5.33,85.284-46.488,85.284-96.48c0-21.342-6.806-41.07-18.333-57.093l11.401-11.546
	C341.126,131.059,351.855,155.327,351.855,182.132z"/>
<path style="fill:#F53737;" d="M361.402,179.208c0.044,1.649-1.251,3.018-2.885,3.018h-98.683V78.499
	c0-1.692,1.423-3.019,3.095-2.909C316.981,79.142,359.934,123.932,361.402,179.208z"/>
<path style="fill:#DB3131;" d="M361.402,179.208c0.044,1.649-1.251,3.018-2.885,3.018H340.62
	c0.043-50.146-32.61-92.564-77.557-106.626C317.052,79.217,359.935,123.977,361.402,179.208z"/>
<path style="fill:#FFECA1;" d="M303.928,182.132c0,26.805-21.458,48.535-47.927,48.535s-47.927-21.73-47.927-48.535
	S229.53,133.597,256,133.597S303.928,155.327,303.928,182.132z"/>
<path d="M390.197,407.695c4.143,0,7.5,3.358,7.5,7.5v9.707c0,4.142-3.357,7.5-7.5,7.5s-7.5-3.358-7.5-7.5v-9.707
	C382.697,411.053,386.055,407.695,390.197,407.695z M384.445,330.039h-80.518c-4.143,0-7.5,3.358-7.5,7.5s3.357,7.5,7.5,7.5h80.518
	c4.143,0,7.5-3.358,7.5-7.5S388.588,330.039,384.445,330.039z M376.13,424.902v-9.707c0-4.142-3.357-7.5-7.5-7.5s-7.5,3.358-7.5,7.5
	v9.707c0,4.142,3.357,7.5,7.5,7.5S376.13,429.044,376.13,424.902z M106.467,189.632h19.171c4.143,0,7.5-3.358,7.5-7.5
	s-3.357-7.5-7.5-7.5h-19.171c-4.143,0-7.5,3.358-7.5,7.5S102.324,189.632,106.467,189.632z M326.294,471.23
	c4.143,0,7.5-3.358,7.5-7.5v-9.707c0-4.142-3.357-7.5-7.5-7.5s-7.5,3.358-7.5,7.5v9.707
	C318.794,467.873,322.151,471.23,326.294,471.23z M441,87.04c-4.143,0-7.5,3.358-7.5,7.5v400.253c0,1.217-0.936,2.207-2.086,2.207
	H80.586c-1.15,0-2.086-0.99-2.086-2.207v-68.92c0-4.142-3.357-7.5-7.5-7.5s-7.5,3.358-7.5,7.5v68.92
	c0,9.488,7.665,17.207,17.086,17.207h350.828c9.421,0,17.086-7.719,17.086-17.207V94.54C448.5,90.398,445.143,87.04,441,87.04z
	 M98.967,463.73c0-4.142,3.357-7.5,7.5-7.5h7.836v-50.742c0-9.488,7.665-17.207,17.086-17.207h19.171
	c0.706,0,1.402,0.043,2.086,0.127v-60.577c0-9.488,7.664-17.207,17.085-17.207h19.171c9.421,0,17.086,7.719,17.086,17.207v31.456
	c0.684-0.084,1.38-0.127,2.085-0.127h19.171c9.421,0,17.086,7.719,17.086,17.207v79.863h7.837c4.143,0,7.5,3.358,7.5,7.5
	s-3.357,7.5-7.5,7.5h-145.7C102.324,471.23,98.967,467.873,98.967,463.73z M205.987,456.23h23.342v-79.863
	c0-1.217-0.936-2.207-2.086-2.207h-19.171c-1.149,0-2.085,0.99-2.085,2.207L205.987,456.23L205.987,456.23z M167.646,456.23h23.342
	V327.832c0-1.217-0.936-2.207-2.086-2.207H169.73c-1.149,0-2.085,0.99-2.085,2.207V456.23H167.646z M129.303,456.23h23.343v-50.742
	c0-1.217-0.936-2.207-2.086-2.207h-19.171c-1.15,0-2.086,0.99-2.086,2.207V456.23z M371.026,471.23c4.143,0,7.5-3.358,7.5-7.5
	v-9.707c0-4.142-3.357-7.5-7.5-7.5s-7.5,3.358-7.5,7.5v9.707C363.526,467.873,366.884,471.23,371.026,471.23z M374.86,286.797
	c4.143,0,7.5-3.358,7.5-7.5s-3.357-7.5-7.5-7.5h-19.171c-4.143,0-7.5,3.358-7.5,7.5s3.357,7.5,7.5,7.5H374.86z M325.495,432.402
	c4.143,0,7.5-3.358,7.5-7.5v-9.707c0-4.142-3.357-7.5-7.5-7.5s-7.5,3.358-7.5,7.5v9.707
	C317.995,429.044,321.353,432.402,325.495,432.402z M246.414,189.632h19.172c4.143,0,7.5-3.358,7.5-7.5s-3.357-7.5-7.5-7.5h-19.172
	c-4.143,0-7.5,3.358-7.5,7.5S242.271,189.632,246.414,189.632z M337.232,102.743c20.447,21.412,31.708,49.606,31.708,79.389
	c0,0.039-0.001,0.125-0.001,0.164c0,4.143-3.357,7.43-7.5,7.43h-2.354c-3.86,54.127-48.62,96.976-103.085,96.976
	c-56.99,0-103.354-46.91-103.354-104.57c0-56.418,44.391-102.544,99.688-104.505v-2.194c0-2.036,0.828-3.985,2.294-5.398
	c1.466-1.414,3.437-2.17,5.478-2.097C289.423,69,316.813,81.36,337.232,102.743z M215.572,182.132
	c0,22.627,18.136,41.035,40.428,41.035s40.428-18.408,40.428-41.035S278.292,141.097,256,141.097S215.572,159.505,215.572,182.132z
	 M188.476,239.838l23.457-23.753c-7.124-9.428-11.36-21.201-11.36-33.953c0-29.653,22.9-54,51.762-55.914v-33.58
	c-47.025,1.956-84.688,41.35-84.688,89.494C167.646,204.096,175.486,224.241,188.476,239.838z M344.04,189.727h-33.119
	c-3.679,27.318-26.906,48.441-54.921,48.441c-12.58,0-24.196-4.26-33.509-11.427l-23.486,23.783
	c15.396,13.208,35.294,21.179,56.995,21.179C302.197,271.703,340.227,235.577,344.04,189.727z M353.681,174.727
	c-3.395-47.619-39.573-85.818-86.347-91.212v43.76c22.805,4.81,40.514,23.833,43.611,47.452h39.717c0.777-0.124,1.607-0.124,2.385,0
	H353.681z M448.5,17.207v48.859c0,4.142-3.357,7.5-7.5,7.5s-7.5-3.358-7.5-7.5V17.207c0-1.217-0.936-2.207-2.086-2.207H139.847
	v76.346c0,9.488-7.664,17.207-17.085,17.207H78.5v288.199c0,4.142-3.357,7.5-7.5,7.5s-7.5-3.358-7.5-7.5V102.518
	c0-2.422,0.701-4.772,2.026-6.795l59.128-90.167C126.934,2.078,130.771,0,134.918,0h296.496C440.835,0,448.5,7.719,448.5,17.207z
	 M124.847,32.616l-39.96,60.937h37.875c1.149,0,2.085-0.99,2.085-2.207V32.616z M374.86,58.242h-19.171c-4.143,0-7.5,3.358-7.5,7.5
	s3.357,7.5,7.5,7.5h19.171c4.143,0,7.5-3.358,7.5-7.5S379.003,58.242,374.86,58.242z M353.604,366.66c0-4.142-3.357-7.5-7.5-7.5
	h-42.176c-4.143,0-7.5,3.358-7.5,7.5s3.357,7.5,7.5,7.5h42.176C350.246,374.16,353.604,370.802,353.604,366.66z M311.428,415.195
	c0-4.142-3.357-7.5-7.5-7.5s-7.5,3.358-7.5,7.5v9.707c0,4.142,3.357,7.5,7.5,7.5s7.5-3.358,7.5-7.5V415.195z M303.928,446.523
	c-4.143,0-7.5,3.358-7.5,7.5v9.707c0,4.142,3.357,7.5,7.5,7.5s7.5-3.358,7.5-7.5v-9.707
	C311.428,449.881,308.07,446.523,303.928,446.523z M347.063,432.402c4.143,0,7.5-3.358,7.5-7.5v-9.707c0-4.142-3.357-7.5-7.5-7.5
	s-7.5,3.358-7.5,7.5v9.707C339.563,429.044,342.92,432.402,347.063,432.402z M348.66,471.23c4.143,0,7.5-3.358,7.5-7.5v-9.707
	c0-4.142-3.357-7.5-7.5-7.5s-7.5,3.358-7.5,7.5v9.707C341.16,467.873,344.518,471.23,348.66,471.23z"/>
<g>
</g>
<g>
</g>
<g>
</g>
<g>
</g>
<g>
</g>
<g>
</g>
<g>
</g>
<g>
</g>
<g>
</g>
<g>
</g>
<g>
</g>
<g>
</g>
<g>
</g>
<g>
</g>
<g>
</g>
</svg>
