<?xml version="1.0" encoding="iso-8859-1"?>
<!-- Generator: Adobe Illustrator 19.0.0, SVG Export Plug-In . SVG Version: 6.00 Build 0)  -->
<svg version="1.1" id="Capa_1" xmlns="http://www.w3.org/2000/svg" xmlns:xlink="http://www.w3.org/1999/xlink" x="0px" y="0px"
	 viewBox="0 0 479.998 479.998" style="enable-background:new 0 0 479.998 479.998;" xml:space="preserve">
<linearGradient id="SVGID_1_" gradientUnits="userSpaceOnUse" x1="-51.3532" y1="617.3993" x2="-51.3532" y2="553.2733" gradientTransform="matrix(8 0 0 -8 650.825 4940.9849)">
	<stop  offset="0" style="stop-color:#FC5C7D"/>
	<stop  offset="0.129" style="stop-color:#F35E85"/>
	<stop  offset="0.343" style="stop-color:#D9659B"/>
	<stop  offset="0.616" style="stop-color:#B070BF"/>
	<stop  offset="0.934" style="stop-color:#777FF0"/>
	<stop  offset="1" style="stop-color:#6A82FB"/>
</linearGradient>
<path style="fill:url(#SVGID_1_);" d="M404.025,7.998c-0.001-4.418-3.583-7.999-8.002-7.998c-2.121,0-4.154,0.843-5.654,2.342
	l-72,72c-1.5,1.5-2.344,3.534-2.344,5.656v8.224c-83.74-57.5-198.238-36.228-255.737,47.512
	C5.73,215.19,21.762,323.286,97.033,383.486l-36.368,85.376c-1.732,4.065,0.159,8.764,4.224,10.496
	c0.992,0.423,2.058,0.64,3.136,0.64h288c4.418,0,8-3.581,8-8c0-1.078-0.218-2.145-0.64-3.136l-36.368-85.376
	c68.127-54.514,88.573-149.394,48.944-227.128l-14.256,7.28c12.122,23.623,18.404,49.808,18.32,76.36
	c0.15,92.934-75.066,168.393-168,168.543s-168.393-75.066-168.543-168c-0.15-92.934,75.066-168.393,168-168.543
	c37.932-0.061,74.772,12.695,104.543,36.2v16.488l-13.8,13.8c-55.93-49.935-141.751-45.076-191.687,10.854
	c-14.461,16.197-24.826,35.627-30.225,56.658l15.488,4c16.463-64.087,81.762-102.694,145.849-86.231
	c18.238,4.685,35.116,13.603,49.263,26.031l-22.616,22.616c-37.326-31.126-92.817-26.101-123.944,11.225
	s-26.101,92.817,11.225,123.944c11.203,9.342,24.552,15.753,38.847,18.656l3.2-15.68c-38.975-7.885-64.178-45.872-56.293-84.847
	c7.885-38.975,45.872-64.178,84.847-56.293c11.247,2.275,21.787,7.206,30.742,14.381l-22.864,22.864
	c-18.477-12.23-43.37-7.165-55.599,11.312c-12.23,18.477-7.165,43.37,11.312,55.599s43.37,7.165,55.599-11.312
	c8.886-13.425,8.886-30.862,0-44.287l22.864-22.864c24.842,30.988,19.859,76.247-11.129,101.088
	c-6.978,5.594-14.938,9.837-23.471,12.512l4.8,15.264C284.77,309.431,310.544,260.077,296,213.74
	c-3.445-10.978-9.012-21.172-16.383-30.006l22.616-22.616c43.626,49.844,38.585,125.615-11.259,169.241
	S165.358,368.944,121.733,319.1c-12.353-14.114-21.224-30.929-25.9-49.094l-15.488,4c18.546,72.785,92.584,116.755,165.369,98.209
	c72.785-18.546,116.755-92.584,98.209-165.369c-5.397-21.182-15.82-40.751-30.386-57.048l13.8-13.8h44.688
	c2.122,0,4.156-0.844,5.656-2.344l72-72c3.124-3.125,3.123-8.19-0.002-11.314c-1.5-1.499-3.534-2.342-5.654-2.342h-40L404.025,7.998
	z M313.769,393.206l30.152,70.792H80.129l6.816-16h61.08v-16H93.761l16.52-38.792C171.898,434.263,252.152,434.263,313.769,393.206z
	 M348.025,67.31v25.376l-16,16V83.31L348.025,67.31z M236.025,239.998c0,13.255-10.745,24-24,24c-13.255,0-24-10.745-24-24
	c0-13.255,10.745-24,24-24c3.564,0.014,7.078,0.834,10.28,2.4l-15.936,15.936l11.312,11.312l15.944-15.928
	C235.191,232.92,236.011,236.434,236.025,239.998L236.025,239.998z M424.713,63.998l-56,56h-25.376l42.344-42.344l-11.312-11.312
	l-10.344,10.344V51.31l24-24v28.688c0,4.418,3.582,8,8,8H424.713z"/>
<g>
	
		<linearGradient id="SVGID_2_" gradientUnits="userSpaceOnUse" x1="-70.8335" y1="617.3993" x2="-70.8335" y2="553.2733" gradientTransform="matrix(8 0 0 -8 650.825 4940.9849)">
		<stop  offset="0" style="stop-color:#FC5C7D"/>
		<stop  offset="0.129" style="stop-color:#F35E85"/>
		<stop  offset="0.343" style="stop-color:#D9659B"/>
		<stop  offset="0.616" style="stop-color:#B070BF"/>
		<stop  offset="0.934" style="stop-color:#777FF0"/>
		<stop  offset="1" style="stop-color:#6A82FB"/>
	</linearGradient>
	<path style="fill:url(#SVGID_2_);" d="M76.289,231.502c-0.176,2.811-0.264,5.643-0.264,8.496s0.088,5.685,0.264,8.496l16-0.992
		c-0.176-2.48-0.264-4.981-0.264-7.504c0-2.523,0.077-5.024,0.232-7.504L76.289,231.502z"/>
	
		<linearGradient id="SVGID_3_" gradientUnits="userSpaceOnUse" x1="-59.85" y1="617.3993" x2="-59.85" y2="553.2733" gradientTransform="matrix(8 0 0 -8 650.825 4940.9849)">
		<stop  offset="0" style="stop-color:#FC5C7D"/>
		<stop  offset="0.129" style="stop-color:#F35E85"/>
		<stop  offset="0.343" style="stop-color:#D9659B"/>
		<stop  offset="0.616" style="stop-color:#B070BF"/>
		<stop  offset="0.934" style="stop-color:#777FF0"/>
		<stop  offset="1" style="stop-color:#6A82FB"/>
	</linearGradient>
	<path style="fill:url(#SVGID_3_);" d="M164.025,431.998h16v16h-16V431.998z"/>
</g>
<g>
</g>
<g>
</g>
<g>
</g>
<g>
</g>
<g>
</g>
<g>
</g>
<g>
</g>
<g>
</g>
<g>
</g>
<g>
</g>
<g>
</g>
<g>
</g>
<g>
</g>
<g>
</g>
<g>
</g>
</svg>
