<?xml version="1.0" encoding="iso-8859-1"?>
<!-- Generator: Adobe Illustrator 19.0.0, SVG Export Plug-In . SVG Version: 6.00 Build 0)  -->
<svg version="1.1" id="Capa_1" xmlns="http://www.w3.org/2000/svg" xmlns:xlink="http://www.w3.org/1999/xlink" x="0px" y="0px"
	 viewBox="0 0 480 480" style="enable-background:new 0 0 480 480;" xml:space="preserve">
<linearGradient id="SVGID_1_" gradientUnits="userSpaceOnUse" x1="-26.875" y1="616.099" x2="-26.875" y2="557.405" gradientTransform="matrix(8 0 0 -8 455.0001 4941)">
	<stop  offset="0" style="stop-color:#FC5C7D"/>
	<stop  offset="0.129" style="stop-color:#F35E85"/>
	<stop  offset="0.343" style="stop-color:#D9659B"/>
	<stop  offset="0.616" style="stop-color:#B070BF"/>
	<stop  offset="0.934" style="stop-color:#777FF0"/>
	<stop  offset="1" style="stop-color:#6A82FB"/>
</linearGradient>
<path style="fill:url(#SVGID_1_);" d="M88,480h304c13.255,0,24-10.745,24-24s-10.745-24-24-24v-40c0-2.122-0.844-4.156-2.344-5.656
	l-62.8-62.8L290.648,229.4c11.826-5.789,16.719-20.069,10.93-31.894c-2.763-5.644-7.643-9.969-13.578-12.034V176
	c35.345-26.511,42.506-76.656,15.995-112.001c-10.042-13.388-24.03-23.29-39.995-28.311V24c0-13.255-10.745-24-24-24
	c-13.255,0-24,10.745-24,24v11.688c-42.147,13.256-65.568,58.17-52.311,100.317C168.71,151.97,178.612,165.958,192,176v9.48
	c-12.433,4.332-19.001,17.923-14.669,30.356c2.065,5.927,6.385,10.801,12.021,13.564l-36.208,94.144l-62.8,62.8
	c-1.5,1.5-2.344,3.534-2.344,5.656v40c-13.255,0-24,10.745-24,24S74.745,480,88,480z M232,32v-8c0-4.418,3.582-8,8-8s8,3.582,8,8v8
	H232z M176,112c-0.008-35.346,28.639-64.006,63.986-64.014c35.346-0.008,64.006,28.639,64.014,63.986
	c0.005,21.385-10.672,41.36-28.456,53.237c-2.216,1.486-3.545,3.98-3.544,6.648V184h-64v-12.144
	c0.001-2.668-1.328-5.162-3.544-6.648C186.67,153.347,175.99,133.379,176,112z M200,200h80c4.418,0,8,3.582,8,8s-3.582,8-8,8h-80
	c-4.418,0-8-3.582-8-8S195.582,200,200,200z M104,400h216v-16H115.312l50.344-50.344c0.792-0.792,1.411-1.74,1.816-2.784
	L205.496,232h69.008l33.848,88H192v16h124.688L376,395.312V432H104V400z M88,448h304c4.418,0,8,3.582,8,8s-3.582,8-8,8H88
	c-4.418,0-8-3.582-8-8S83.582,448,88,448z"/>
<linearGradient id="SVGID_2_" gradientUnits="userSpaceOnUse" x1="-31.0752" y1="616.099" x2="-31.0752" y2="557.405" gradientTransform="matrix(8 0 0 -8 455.0001 4941)">
	<stop  offset="0" style="stop-color:#FC5C7D"/>
	<stop  offset="0.129" style="stop-color:#F35E85"/>
	<stop  offset="0.343" style="stop-color:#D9659B"/>
	<stop  offset="0.616" style="stop-color:#B070BF"/>
	<stop  offset="0.934" style="stop-color:#777FF0"/>
	<stop  offset="1" style="stop-color:#6A82FB"/>
</linearGradient>
<path style="fill:url(#SVGID_2_);" d="M214.4,131.2c-10.604-14.138-7.738-34.196,6.4-44.8l0,0l-9.6-12.8
	c-21.208,15.906-25.506,45.992-9.6,67.2L214.4,131.2z"/>
<linearGradient id="SVGID_3_" gradientUnits="userSpaceOnUse" x1="-26.875" y1="616.099" x2="-26.875" y2="557.405" gradientTransform="matrix(8 0 0 -8 455.0001 4941)">
	<stop  offset="0" style="stop-color:#FC5C7D"/>
	<stop  offset="0.129" style="stop-color:#F35E85"/>
	<stop  offset="0.343" style="stop-color:#D9659B"/>
	<stop  offset="0.616" style="stop-color:#B070BF"/>
	<stop  offset="0.934" style="stop-color:#777FF0"/>
	<stop  offset="1" style="stop-color:#6A82FB"/>
</linearGradient>
<path style="fill:url(#SVGID_3_);" d="M246.4,80.64l3.2-15.68c-6.336-1.276-12.864-1.276-19.2,0l3.2,15.68
	C237.825,79.796,242.175,79.796,246.4,80.64z"/>
<linearGradient id="SVGID_4_" gradientUnits="userSpaceOnUse" x1="-13.875" y1="616.099" x2="-13.875" y2="557.405" gradientTransform="matrix(8 0 0 -8 455.0001 4941)">
	<stop  offset="0" style="stop-color:#FC5C7D"/>
	<stop  offset="0.129" style="stop-color:#F35E85"/>
	<stop  offset="0.343" style="stop-color:#D9659B"/>
	<stop  offset="0.616" style="stop-color:#B070BF"/>
	<stop  offset="0.934" style="stop-color:#777FF0"/>
	<stop  offset="1" style="stop-color:#6A82FB"/>
</linearGradient>
<path style="fill:url(#SVGID_4_);" d="M336,384h16v16h-16V384z"/>
<g>
</g>
<g>
</g>
<g>
</g>
<g>
</g>
<g>
</g>
<g>
</g>
<g>
</g>
<g>
</g>
<g>
</g>
<g>
</g>
<g>
</g>
<g>
</g>
<g>
</g>
<g>
</g>
<g>
</g>
</svg>
