<?xml version="1.0" encoding="iso-8859-1"?>
<!-- Generator: Adobe Illustrator 19.0.0, SVG Export Plug-In . SVG Version: 6.00 Build 0)  -->
<svg version="1.1" id="Capa_1" xmlns="http://www.w3.org/2000/svg" xmlns:xlink="http://www.w3.org/1999/xlink" x="0px" y="0px"
	 viewBox="0 0 512 512" style="enable-background:new 0 0 512 512;" xml:space="preserve">
<path style="fill:#C69C6D;" d="M338.444,406.468l41.318,96.998h-307.2l41.318-96.998H338.444z"/>
<circle style="fill:#DA4836;" cx="226.162" cy="256" r="187.733"/>
<circle style="fill:#F2F2F2;" cx="226.162" cy="256" r="136.533"/>
<circle style="fill:#DA4836;" cx="226.162" cy="256" r="85.333"/>
<circle style="fill:#F2F2F2;" cx="226.162" cy="256" r="34.133"/>
<path style="fill:#29ABE2;" d="M345.629,136.533v-51.2l76.8-76.8v51.2h51.2l-76.8,76.8H345.629z"/>
<path d="M430.962,8.533c0-4.71-3.823-8.533-8.533-8.533c-2.261,0-4.429,0.896-6.033,2.5l-76.8,76.8
	c-1.596,1.596-2.5,3.772-2.5,6.033v8.772C247.777,32.768,125.64,55.458,64.311,144.785
	c-58.197,84.753-41.097,200.055,39.194,264.269l-38.793,91.068c-1.843,4.335,0.171,9.344,4.506,11.196
	C70.276,511.77,71.41,512,72.562,512h307.2c4.71,0,8.533-3.823,8.533-8.533c0-1.152-0.23-2.287-0.683-3.345l-38.793-91.068
	c72.67-58.146,94.481-159.351,52.207-242.27l-15.206,7.765c12.928,25.199,19.635,53.129,19.541,81.451
	c0.162,99.132-80.068,179.618-179.2,179.78s-179.618-80.068-179.78-179.2C46.22,157.449,126.45,76.954,225.582,76.8
	c40.457-0.068,79.753,13.542,111.514,38.613v17.587l-14.72,14.72c-59.657-53.265-151.202-48.077-204.467,11.58
	c-15.428,17.28-26.479,37.999-32.239,60.433L102.19,224c17.562-68.361,87.211-109.542,155.571-91.981
	c19.456,5.001,37.453,14.507,52.548,27.767l-24.124,24.124c-39.817-33.203-99.004-27.844-132.207,11.972
	s-27.844,99.004,11.972,132.207c11.947,9.967,26.189,16.802,41.438,19.9l3.413-16.725c-41.574-8.414-68.454-48.93-60.049-90.505
	c8.414-41.574,48.93-68.454,90.505-60.049c11.998,2.423,23.236,7.689,32.794,15.343l-24.388,24.388
	c-19.712-13.047-46.259-7.646-59.307,12.066c-13.047,19.712-7.646,46.259,12.066,59.307c19.712,13.047,46.259,7.646,59.307-12.066
	c9.481-14.319,9.481-32.922,0-47.241l24.388-24.388c26.496,33.05,21.18,81.331-11.87,107.827
	c-7.441,5.965-15.932,10.496-25.037,13.346l5.12,16.282c49.425-15.514,76.919-68.156,61.406-117.581
	c-3.678-11.708-9.609-22.588-17.476-32.009l24.124-24.124c46.532,53.163,41.156,133.99-12.006,180.523
	s-133.99,41.156-180.523-12.006c-13.175-15.053-22.639-32.99-27.622-52.369l-16.521,4.267
	c19.78,77.636,98.756,124.535,176.393,104.755s124.535-98.756,104.747-176.393c-5.76-22.596-16.879-43.469-32.41-60.851l14.72-14.72
	h47.667c2.261,0,4.437-0.896,6.033-2.5l76.8-76.8c3.328-3.337,3.328-8.738,0-12.066c-1.604-1.604-3.772-2.5-6.033-2.5h-42.667
	L430.962,8.533z M334.689,419.422l32.162,75.511H85.473l7.27-17.067h65.152V460.8h-57.882l17.621-41.378
	C183.359,463.215,268.966,463.215,334.689,419.422z M371.229,71.799v27.068l-17.067,17.067V88.866L371.229,71.799z M251.762,256
	c0,14.14-11.46,25.6-25.6,25.6s-25.6-11.46-25.6-25.6c0-14.14,11.46-25.6,25.6-25.6c3.797,0.017,7.552,0.887,10.965,2.56
	l-16.998,16.998l12.066,12.066l17.007-16.99C250.875,248.448,251.745,252.194,251.762,256L251.762,256z M453.03,68.267L393.296,128
	h-27.068l45.167-45.167l-12.066-12.066l-11.034,11.034V54.733l25.6-25.6v30.601c0,4.71,3.823,8.533,8.533,8.533H453.03z"/>
<path d="M81.377,246.938c-0.188,2.995-0.282,6.016-0.282,9.062c0,3.046,0.094,6.067,0.282,9.062l17.067-1.058
	c-0.188-2.645-0.282-5.316-0.282-8.004c0-2.688,0.085-5.359,0.247-8.004L81.377,246.938z"/>
<path d="M174.962,460.8h17.067v17.067h-17.067V460.8z"/>
<g>
</g>
<g>
</g>
<g>
</g>
<g>
</g>
<g>
</g>
<g>
</g>
<g>
</g>
<g>
</g>
<g>
</g>
<g>
</g>
<g>
</g>
<g>
</g>
<g>
</g>
<g>
</g>
<g>
</g>
</svg>
