<svg height="480pt" viewBox="-8 0 480 480" width="480pt" xmlns="http://www.w3.org/2000/svg" xmlns:xlink="http://www.w3.org/1999/xlink"><linearGradient id="lg1"><stop offset="0" stop-color="#fc5c7d"/><stop offset=".129" stop-color="#f35e85"/><stop offset=".343" stop-color="#d9659b"/><stop offset=".616" stop-color="#b070bf"/><stop offset=".934" stop-color="#777ff0"/><stop offset="1" stop-color="#6a82fb"/></linearGradient><linearGradient id="linear0" gradientUnits="userSpaceOnUse" x1="84" x2="84" xlink:href="#lg1" y1="-23.312" y2="489.256"/><linearGradient id="linear1" gradientUnits="userSpaceOnUse" x1="232" x2="232" xlink:href="#lg1" y1="-23.312" y2="489.256"/><linearGradient id="linear2" gradientUnits="userSpaceOnUse" x1="319.344" x2="319.344" xlink:href="#lg1" y1="-23.312" y2="489.256"/><linearGradient id="linear3" gradientUnits="userSpaceOnUse" x1="263.64" x2="263.64" xlink:href="#lg1" y1="-23.312" y2="489.256"/><linearGradient id="linear4" gradientUnits="userSpaceOnUse" x1="76" x2="76" xlink:href="#lg1" y1="-23.312" y2="489.256"/><linearGradient id="linear5" gradientUnits="userSpaceOnUse" x1="380" x2="380" xlink:href="#lg1" y1="-23.312" y2="489.256"/><linearGradient id="linear6" gradientUnits="userSpaceOnUse" x1="388" x2="388" xlink:href="#lg1" y1="-23.312" y2="489.256"/><path d="m24 184h8v24h16v-80h-16v40h-8c-4.417969 0-8-3.582031-8-8v-48c0-17.671875 14.328125-32 32-32h102.632812c-3.402343 9.582031-12.464843 15.988281-22.632812 16h-24v16h24c22.082031-.027344 39.972656-17.917969 40-40 0-4.417969-3.582031-8-8-8h-56.207031c5.292969-6.882812 8.175781-15.316406 8.207031-24 0-22.089844-17.910156-40-40-40s-40 17.910156-40 40c.039062 8.953125 3.109375 17.628906 8.710938 24.617188-23.398438 3.59375-40.679688 23.710937-40.710938 47.382812v48c0 13.253906 10.746094 24 24 24zm48-168c13.253906 0 24 10.746094 24 24s-10.746094 24-24 24-24-10.746094-24-24 10.746094-24 24-24zm0 0" fill="url(#linear0)"/><path d="m360 224c0-35.046875-14.367188-68.5625-39.757812-92.726562-25.386719-24.160157-59.574219-36.855469-94.578126-35.121094-54.800781 2.742187-101.757812 40.109375-116.738281 92.898437-14.976562 52.785157 5.355469 109.246094 50.546875 140.363281 10.234375 6.828126 16.425782 18.28125 16.527344 30.585938v64c0 4.417969 3.582031 8 8 8h96c4.417969 0 8-3.582031 8-8v-64c0-.078125-.046875-.152344-.046875-.230469 0-.082031.046875-.160156.046875-.242187.242188-12.164063 6.441406-23.433594 16.585938-30.152344 34.675781-23.875 55.394531-63.273438 55.414062-105.375zm-88 144v16h-80v-16zm0 48h-80v-16h80zm23.496094-99.800781c-12.222656 8.28125-20.496094 21.230469-22.871094 35.800781h-32.625v-64.71875c23.066406-3.921875 39.957031-23.882812 40-47.28125h-16c0 17.671875-14.328125 32-32 32s-32-14.328125-32-32h-16c.042969 23.398438 16.933594 43.359375 40 47.28125v64.71875h-32.574219c-2.378906-14.5625-10.65625-27.503906-22.882812-35.769531-40.414063-27.800781-58.035157-78.664063-43.476563-125.507813 14.554688-46.84375 57.898438-78.765625 106.953125-78.765625 49.054688 0 92.398438 31.921875 106.957031 78.765625 14.554688 46.84375-3.066406 97.707032-43.480468 125.507813zm0 0" fill="url(#linear1)"/><path d="m326.398438 206.550781-15.734376 2.898438c.886719 4.796875 1.335938 9.667969 1.335938 14.550781h16c0-5.851562-.539062-11.691406-1.601562-17.449219zm0 0" fill="url(#linear2)"/><path d="m232 128c-8.851562-.003906-17.660156 1.210938-26.175781 3.617188l4.351562 15.390624c39.660157-11.183593 81.339844 9.535157 96.367188 47.902344l14.914062-5.820312c-14.261719-36.949219-49.855469-61.253906-89.457031-61.089844zm0 0" fill="url(#linear3)"/><path d="m24 456h8v24h16v-80h-16v40h-8c-4.417969 0-8-3.582031-8-8v-48c0-17.671875 14.328125-32 32-32h86.632812c-3.402343 9.582031-12.464843 15.988281-22.632812 16h-16c-4.417969 0-8 3.582031-8 8v104h16v-96h8c22.082031-.027344 39.972656-17.917969 40-40 0-4.417969-3.582031-8-8-8h-40.207031c5.292969-6.882812 8.175781-15.316406 8.207031-24 0-22.089844-17.910156-40-40-40s-40 17.910156-40 40c.039062 8.953125 3.109375 17.628906 8.710938 24.617188-23.398438 3.59375-40.679688 23.710937-40.710938 47.382812v48c0 13.253906 10.746094 24 24 24zm48-168c13.253906 0 24 10.746094 24 24s-10.746094 24-24 24-24-10.746094-24-24 10.746094-24 24-24zm0 0" fill="url(#linear4)"/><path d="m464 112c-.03125-23.671875-17.3125-43.789062-40.710938-47.382812 5.601563-6.988282 8.671876-15.664063 8.710938-24.617188 0-22.089844-17.910156-40-40-40s-40 17.910156-40 40c.03125 8.683594 2.914062 17.117188 8.207031 24h-56.207031c-4.417969 0-8 3.582031-8 8 .027344 22.082031 17.917969 39.972656 40 40h24v-16h-24c-10.167969-.011719-19.230469-6.417969-22.632812-16h102.632812c17.671875 0 32 14.328125 32 32v48c0 4.417969-3.582031 8-8 8h-8v-40h-16v80h16v-24h8c13.253906 0 24-10.746094 24-24zm-96-72c0-13.253906 10.746094-24 24-24s24 10.746094 24 24-10.746094 24-24 24-24-10.746094-24-24zm0 0" fill="url(#linear5)"/><path d="m464 432v-48c-.03125-23.671875-17.3125-43.789062-40.710938-47.382812 5.601563-6.988282 8.671876-15.664063 8.710938-24.617188 0-22.089844-17.910156-40-40-40s-40 17.910156-40 40c.03125 8.683594 2.914062 17.117188 8.207031 24h-40.207031c-4.417969 0-8 3.582031-8 8 .027344 22.082031 17.917969 39.972656 40 40h8v96h16v-104c0-4.417969-3.582031-8-8-8h-16c-10.167969-.011719-19.230469-6.417969-22.632812-16h86.632812c17.671875 0 32 14.328125 32 32v48c0 4.417969-3.582031 8-8 8h-8v-40h-16v80h16v-24h8c13.253906 0 24-10.746094 24-24zm-96-120c0-13.253906 10.746094-24 24-24s24 10.746094 24 24-10.746094 24-24 24-24-10.746094-24-24zm0 0" fill="url(#linear6)"/></svg>