<?xml version="1.0" encoding="iso-8859-1"?>
<!-- Generator: Adobe Illustrator 19.0.0, SVG Export Plug-In . SVG Version: 6.00 Build 0)  -->
<svg version="1.1" id="Capa_1" xmlns="http://www.w3.org/2000/svg" xmlns:xlink="http://www.w3.org/1999/xlink" x="0px" y="0px"
	 viewBox="0 0 480 480" style="enable-background:new 0 0 480 480;" xml:space="preserve">
<g>
	
		<linearGradient id="SVGID_1_" gradientUnits="userSpaceOnUse" x1="-29.875" y1="603.698" x2="-29.875" y2="545.615" gradientTransform="matrix(8 0 0 -8 455 4833)">
		<stop  offset="0" style="stop-color:#FC5C7D"/>
		<stop  offset="0.129" style="stop-color:#F35E85"/>
		<stop  offset="0.343" style="stop-color:#D9659B"/>
		<stop  offset="0.616" style="stop-color:#B070BF"/>
		<stop  offset="0.934" style="stop-color:#777FF0"/>
		<stop  offset="1" style="stop-color:#6A82FB"/>
	</linearGradient>
	<path style="fill:url(#SVGID_1_);" d="M192,196h16c0-17.6,14.4-32,32-32v-16C213.6,148,192,169.6,192,196z"/>
	
		<linearGradient id="SVGID_2_" gradientUnits="userSpaceOnUse" x1="-26.875" y1="603.698" x2="-26.875" y2="545.615" gradientTransform="matrix(8 0 0 -8 455 4833)">
		<stop  offset="0" style="stop-color:#FC5C7D"/>
		<stop  offset="0.129" style="stop-color:#F35E85"/>
		<stop  offset="0.343" style="stop-color:#D9659B"/>
		<stop  offset="0.616" style="stop-color:#B070BF"/>
		<stop  offset="0.934" style="stop-color:#777FF0"/>
		<stop  offset="1" style="stop-color:#6A82FB"/>
	</linearGradient>
	<path style="fill:url(#SVGID_2_);" d="M472,404h-8V116c0-17.6-14.4-32-32-32h-56V44c0-17.6-14.4-32-32-32H136
		c-17.6,0-32,14.4-32,32v40H48c-17.6,0-32,14.4-32,32v288H8c-4.8,0-8,3.2-8,8v24c0,17.6,14.4,32,32,32h416c17.6,0,32-14.4,32-32v-24
		C480,407.2,476.8,404,472,404z M376,140h32v216h-32V140z M120,44c0-8.8,7.2-16,16-16h208c8.8,0,16,7.2,16,16v32H120V44z M120,92
		h240v264h-96v-48c0-4.8-3.2-8-8-8h-8v-24.8c40.8-4,72-38.4,72-79.2c0-44-36-80-80-80s-80,36-80,80c0,41.6,31.2,75.2,72,79.2V300h-8
		c-4.8,0-8,3.2-8,8v48h-96V92z M248,316v40h-16v-40H248z M240,260c-35.2,0-64-28.8-64-64s28.8-64,64-64s64,28.8,64,64
		S275.2,260,240,260z M32,116c0-8.8,7.2-16,16-16h56v24H64c-4.8,0-8,3.2-8,8v232c0,4.8,3.2,8,8,8h352c4.8,0,8-3.2,8-8V132
		c0-4.8-3.2-8-8-8h-40v-24h56c8.8,0,16,7.2,16,16v288H312c-2.4,0-4,0.8-5.6,2.4L292.8,420H187.2l-13.6-13.6
		c-1.6-1.6-3.2-2.4-5.6-2.4H32L32,116z M104,140v216H72V140H104z M464,436c0,8.8-7.2,16-16,16H32c-8.8,0-16-7.2-16-16v-16h148.8
		l13.6,13.6c1.6,1.6,3.2,2.4,5.6,2.4h112c2.4,0,4-0.8,5.6-2.4l13.6-13.6H464V436z"/>
	
		<linearGradient id="SVGID_3_" gradientUnits="userSpaceOnUse" x1="-26.875" y1="603.698" x2="-26.875" y2="545.615" gradientTransform="matrix(8 0 0 -8 455 4833)">
		<stop  offset="0" style="stop-color:#FC5C7D"/>
		<stop  offset="0.129" style="stop-color:#F35E85"/>
		<stop  offset="0.343" style="stop-color:#D9659B"/>
		<stop  offset="0.616" style="stop-color:#B070BF"/>
		<stop  offset="0.934" style="stop-color:#777FF0"/>
		<stop  offset="1" style="stop-color:#6A82FB"/>
	</linearGradient>
	<path style="fill:url(#SVGID_3_);" d="M232,388h16v16h-16V388z"/>
	
		<linearGradient id="SVGID_4_" gradientUnits="userSpaceOnUse" x1="-38.875" y1="603.698" x2="-38.875" y2="545.615" gradientTransform="matrix(8 0 0 -8 455 4833)">
		<stop  offset="0" style="stop-color:#FC5C7D"/>
		<stop  offset="0.129" style="stop-color:#F35E85"/>
		<stop  offset="0.343" style="stop-color:#D9659B"/>
		<stop  offset="0.616" style="stop-color:#B070BF"/>
		<stop  offset="0.934" style="stop-color:#777FF0"/>
		<stop  offset="1" style="stop-color:#6A82FB"/>
	</linearGradient>
	<path style="fill:url(#SVGID_4_);" d="M136,44h16v16h-16V44z"/>
	
		<linearGradient id="SVGID_5_" gradientUnits="userSpaceOnUse" x1="-34.875" y1="603.698" x2="-34.875" y2="545.615" gradientTransform="matrix(8 0 0 -8 455 4833)">
		<stop  offset="0" style="stop-color:#FC5C7D"/>
		<stop  offset="0.129" style="stop-color:#F35E85"/>
		<stop  offset="0.343" style="stop-color:#D9659B"/>
		<stop  offset="0.616" style="stop-color:#B070BF"/>
		<stop  offset="0.934" style="stop-color:#777FF0"/>
		<stop  offset="1" style="stop-color:#6A82FB"/>
	</linearGradient>
	<path style="fill:url(#SVGID_5_);" d="M168,44h16v16h-16V44z"/>
	
		<linearGradient id="SVGID_6_" gradientUnits="userSpaceOnUse" x1="-30.875" y1="603.698" x2="-30.875" y2="545.615" gradientTransform="matrix(8 0 0 -8 455 4833)">
		<stop  offset="0" style="stop-color:#FC5C7D"/>
		<stop  offset="0.129" style="stop-color:#F35E85"/>
		<stop  offset="0.343" style="stop-color:#D9659B"/>
		<stop  offset="0.616" style="stop-color:#B070BF"/>
		<stop  offset="0.934" style="stop-color:#777FF0"/>
		<stop  offset="1" style="stop-color:#6A82FB"/>
	</linearGradient>
	<path style="fill:url(#SVGID_6_);" d="M200,44h16v16h-16V44z"/>
	
		<linearGradient id="SVGID_7_" gradientUnits="userSpaceOnUse" x1="-23.775" y1="603.698" x2="-23.775" y2="545.615" gradientTransform="matrix(8 0 0 -8 455 4833)">
		<stop  offset="0" style="stop-color:#FC5C7D"/>
		<stop  offset="0.129" style="stop-color:#F35E85"/>
		<stop  offset="0.343" style="stop-color:#D9659B"/>
		<stop  offset="0.616" style="stop-color:#B070BF"/>
		<stop  offset="0.934" style="stop-color:#777FF0"/>
		<stop  offset="1" style="stop-color:#6A82FB"/>
	</linearGradient>
	<path style="fill:url(#SVGID_7_);" d="M253.6,167.2c4,1.6,7.2,4.8,10.4,8l12-10.4c-4-4.8-9.6-8.8-15.2-11.2L253.6,167.2z"/>
</g>
<g>
</g>
<g>
</g>
<g>
</g>
<g>
</g>
<g>
</g>
<g>
</g>
<g>
</g>
<g>
</g>
<g>
</g>
<g>
</g>
<g>
</g>
<g>
</g>
<g>
</g>
<g>
</g>
<g>
</g>
</svg>
